# xmcd
# 
# Track frame offsets:
#     150
#     11987
#     22475
#     36350
#     45810
#     53985
#     67490
#     78057
#     90040
#     102432
#     116295
#     130477
#     143260
#     160390
#     173005
#     189957
#     200732
#     214177
#     226097
#     237927
#     250807
#     263752
#     275295
#     285767
#     304085
#     328330
# 
# Disc length: 4591
# 
# Revision: 21
# Processed by: cddbd v1.5.2PL0 Copyright (c) Steve Scherf et al.
# Submitted via: fre:ac v1.0.31
# 
DISCID=6711ed1a
DTITLE=johnny cash - Greatest Hits
DYEAR=1995
DGENRE=Country
TTITLE0=I Walk The Line
TTITLE1=Big River
TTITLE2=Don't Take Your Guns To Town
TTITLE3=I Got Stripes
TTITLE4=Five Feet High And Rising
TTITLE5=Tennessee Flat-Top Box
TTITLE6=Bonanza
TTITLE7=Ring Of Fire
TTITLE8=Understand Your Man
TTITLE9=It Ain't Me Babe
TTITLE10=Orange Blossom Special
TTITLE11=The One On The Right Is On The Left
TTITLE12=(Ghost) Riders In The Sky
TTITLE13=Jackson (With June Carter)
TTITLE14=A Boy Named Sue (Live)
TTITLE15=Daddy Sang Bass
TTITLE16=If I Were A Carpenter (With June Carter)
TTITLE17=What Is Truth
TTITLE18=Flesh And Blood
TTITLE19=Wanted Man
TTITLE20=Man In Black
TTITLE21=A Thing Called Love
TTITLE22=Kate
TTITLE23=One Piece At A Time
TTITLE24=Highway Patrolman
TTITLE25=Johnny 99
EXTD=Year: 1995
EXTT0=
EXTT1=
EXTT2=
EXTT3=
EXTT4=
EXTT5=
EXTT6=
EXTT7=
EXTT8=
EXTT9=
EXTT10=
EXTT11=
EXTT12=
EXTT13=
EXTT14=
EXTT15=
EXTT16=
EXTT17=
EXTT18=
EXTT19=
EXTT20=
EXTT21=
EXTT22=
EXTT23=
EXTT24=
EXTT25=
PLAYORDER=
